<svg id="Layer_1" data-name="Layer 1" xmlns="http://www.w3.org/2000/svg" viewBox="0 0 100 100"><defs><style>.cls-1{fill:#124f8d;}.cls-2{fill:#23a5de;}</style></defs><title>Artboard 1234</title><path class="cls-1" d="M87.56,21.6a6.83,6.83,0,0,0-5.09,4.84,6.76,6.76,0,0,0,1.27,6.11L73.42,42.67a10.42,10.42,0,0,0-14,7.31l-9.49-3c-.1.66-.58,2.21-.58,2.21l9.78,3s0,.07,0,.11a10.46,10.46,0,1,0,16.4-8.6l9.9-9.71a6.77,6.77,0,0,0,5.45.83A6.86,6.86,0,0,0,87.56,21.6ZM77.62,50.79a8.18,8.18,0,1,1-6.42-6.42A8.19,8.19,0,0,1,77.62,50.79Zm16-21.6a4.58,4.58,0,1,1-5.39-5.39A4.59,4.59,0,0,1,93.57,29.19Z"/><path class="cls-1" d="M17.33,61.2a8.48,8.48,0,1,0,3.55,8.5A8.35,8.35,0,0,0,19,62.75l8.45-8.62S26.2,52.72,26,52.37Zm1.18,8.67a6.11,6.11,0,0,1-4.29,4.29A6.22,6.22,0,0,1,6.57,66.5a6.12,6.12,0,0,1,4.29-4.29A6.22,6.22,0,0,1,18.52,69.87Z"/><path class="cls-2" d="M50.14,44.78A13.27,13.27,0,0,0,29.88,33.51h0a1.15,1.15,0,1,0,1.27,1.91l.4-.24a11,11,0,1,1-4.08,3.92l.21-.34.08-.12h0a1.14,1.14,0,1,0-2-1.08A13.2,13.2,0,0,0,26,52.37c.21.35,1.47,1.76,1.47,1.76a13.25,13.25,0,0,0,21.91-4.9s.48-1.55.58-2.21A13.29,13.29,0,0,0,50.14,44.78Z"/></svg>