<svg id="Layer_1" data-name="Layer 1" xmlns="http://www.w3.org/2000/svg" viewBox="0 0 100 100"><defs><style>.cls-1{fill:#23a5de;}.cls-2{fill:#124f8d;}</style></defs><title>Artboard 2234</title><path class="cls-1" d="M50.07,53.83a2.09,2.09,0,0,1-1.27-.41L29.54,40.54c-1.19-.8-1.19-1.85,0-2.64L48.68,25.11A2.26,2.26,0,0,1,51.5,25L70.55,37.81a2.14,2.14,0,0,1,.91.94c.26.69,0,1.26-.83,1.83L53.41,52.09l-2,1.37A2.06,2.06,0,0,1,50.07,53.83ZM33.45,39.25c.18.1.33.17.46.26Q41.78,44.76,49.64,50a.72.72,0,0,0,1,0q7.76-5.21,15.55-10.39c.46-.3.51-.45,0-.78q-7.79-5.17-15.55-10.39a.76.76,0,0,0-1,0c-3.1,2.1-6.22,4.17-9.33,6.25Z"/><path class="cls-2" d="M75.28,49.21a1.64,1.64,0,0,1-.9,1.38l-16,11-5.82,4a2.23,2.23,0,0,1-3,0L28,50.77a3.26,3.26,0,0,1-1-.82,1.35,1.35,0,0,1,.41-1.86,2.09,2.09,0,0,1,2.41,0C31.27,49,32.67,50,34.08,51q8.13,5.59,16.25,11.2a1,1,0,0,0,1.41,0q10.12-7,20.3-14a2.2,2.2,0,0,1,2.2-.33A1.47,1.47,0,0,1,75.28,49.21Z"/><path class="cls-1" d="M75.28,60.18c0,.48-.46.88-1,1.25L62.12,69.79l-9.49,6.53a2.28,2.28,0,0,1-3.18,0l-21.77-15c-.66-.46-1.06-1-.82-1.72a1.72,1.72,0,0,1,1.49-1.13,2.42,2.42,0,0,1,1.85.57l13.16,9.06c2.36,1.63,4.73,3.24,7.08,4.89a.87.87,0,0,0,1.21,0q10.1-7,20.24-13.94A2.36,2.36,0,0,1,74,58.55,1.6,1.6,0,0,1,75.28,60.18Z"/><path class="cls-2" d="M82,13.82c-2.35,0-4.48,0-6.61,0-1.45,0-2.35-1.13-1.78-2.16a1.84,1.84,0,0,1,1.7-.92c3.73,0,7.47,0,11.2,0a1.72,1.72,0,0,1,1.89,1.71q0,4.45,0,8.91a1.88,1.88,0,0,1-3.74,0c0-1.7,0-3.4,0-5.1l-.11-.08c-.2.15-.42.31-.62.47L71.21,27.07a2.17,2.17,0,0,1-2,.55,1.66,1.66,0,0,1-1.35-1.17,1.48,1.48,0,0,1,.71-1.57l7.28-6Z"/><path class="cls-2" d="M84.61,83.84c0-1.41,0-2.78,0-4.15,0-.41,0-.82,0-1.22a1.74,1.74,0,0,1,1.83-1.53,1.81,1.81,0,0,1,1.89,1.41,3.54,3.54,0,0,1,0,.54q0,4.28,0,8.56c0,1.12-.77,1.81-2.11,1.81q-5.39,0-10.78,0c-1.23,0-2.07-.66-2.08-1.54s.86-1.54,2.15-1.54h6.23c-.07-.3-.34-.43-.53-.59L68.63,75.17c-.6-.49-1-1-.71-1.75a2,2,0,0,1,2.86-.79,5.39,5.39,0,0,1,.66.51l12.4,10.23A1.61,1.61,0,0,0,84.61,83.84Z"/><path class="cls-2" d="M15.68,16.36c0,1.5,0,3,0,4.44,0,.29,0,.59,0,.88A1.73,1.73,0,0,1,13.9,23.3,1.74,1.74,0,0,1,12,21.83q-.23-4.69-.37-9.38c0-.85.78-1.45,1.87-1.48q5.47-.16,10.95-.29c1.21,0,2,.57,2,1.46s-.68,1.54-1.9,1.59c-1.89.08-3.79.13-5.68.19a1.68,1.68,0,0,0-.76.19c.23.15.47.28.68.45l13,10a1.84,1.84,0,0,1,.9,1.25,1.41,1.41,0,0,1-.84,1.39,2,2,0,0,1-1.94,0A5.51,5.51,0,0,1,29,26.6l-13-10Z"/><path class="cls-2" d="M18.29,86.07c2.11.07,4.22.12,6.33.2,1,0,1.72.54,1.84,1.28.17,1-.66,1.8-2,1.77-2.63-.05-5.26-.14-7.9-.21L13.71,89c-1.39,0-2.14-.64-2.1-1.78q.16-4.45.35-8.9A1.77,1.77,0,0,1,13.9,76.7a1.73,1.73,0,0,1,1.81,1.76c0,1.72,0,3.44,0,5.19.13,0,.24-.21.41-.33l13-10a4.92,4.92,0,0,1,.76-.52,2.11,2.11,0,0,1,2.32.29A1.31,1.31,0,0,1,32.3,75a5,5,0,0,1-.63.53L18.85,85.43c-.22.17-.46.3-.69.46Z"/></svg>