<svg id="Layer_1" data-name="Layer 1" xmlns="http://www.w3.org/2000/svg" viewBox="0 0 100 100"><defs><style>.cls-1{fill:#124f8d;}.cls-2{fill:#23a5de;}</style></defs><title>Artboard 3234</title><path class="cls-1" d="M50.19,84.09H81.58a8.36,8.36,0,0,0,2.14-.2,5.29,5.29,0,0,0,3.88-4.74,13.34,13.34,0,0,0,.07-1.48q0-18.82,0-37.65a6.78,6.78,0,0,1,0-.87A1.31,1.31,0,0,1,89,38a1.35,1.35,0,0,1,1.37,1.15,3.82,3.82,0,0,1,0,.6q0,19.23,0,38.45a8.55,8.55,0,0,1-3.2,7,8.18,8.18,0,0,1-5,1.63H18.55a9.57,9.57,0,0,1-5.71-1.68A7.64,7.64,0,0,1,9.62,78.7c0-3.07,0-6.15,0-9.23q0-14.92,0-29.83c0-1,.49-1.64,1.35-1.66a1.32,1.32,0,0,1,1.38,1.13,5.94,5.94,0,0,1,0,.94q0,18.86,0,37.71a10.94,10.94,0,0,0,.12,1.95,5.31,5.31,0,0,0,5.18,4.37c.34,0,.67,0,1,0Z"/><path class="cls-1" d="M78.63,23H75.19c-1.23,0-1.71-.49-1.74-1.7a12.36,12.36,0,0,0-.54-3.38,6.08,6.08,0,0,0-.43-1.06c-.26-.48-.56-1-1.2-.94s-.94.48-1.19,1a10.54,10.54,0,0,0-1,4.37c-.05,1.28-.5,1.75-1.76,1.75H61c-1.21,0-1.64-.45-1.71-1.65a11.87,11.87,0,0,0-.79-4.07c-.27-.64-.56-1.36-1.41-1.35s-1.09.71-1.35,1.33a11.57,11.57,0,0,0-.78,4c-.06,1.33-.5,1.74-1.84,1.74H46.85c-1.27,0-1.74-.46-1.78-1.73a12.3,12.3,0,0,0-.58-3.5,5.3,5.3,0,0,0-.5-1.1c-.63-1-1.53-1-2.15,0a10.07,10.07,0,0,0-1.09,4.61C40.67,22.57,40.27,23,39,23H32.64c-1.26,0-1.72-.47-1.76-1.75a12.43,12.43,0,0,0-.54-3.31,6.09,6.09,0,0,0-.43-1.06c-.26-.48-.55-1-1.19-1s-.95.46-1.2.95a10.49,10.49,0,0,0-1,4c0,.18,0,.36,0,.54,0,1.13-.53,1.62-1.68,1.63H18.35a7,7,0,0,0-2.7.49A4.87,4.87,0,0,0,12.43,28c-.09,1.36,0,2.74-.07,4.11a1.39,1.39,0,0,1-1.12,1.53,1.3,1.3,0,0,1-1.61-1.14,23,23,0,0,1,.27-6.24c.92-3.45,3.35-5.26,6.74-5.85a40.68,40.68,0,0,1,6.45-.13c.57,0,.8-.12.86-.74a10.45,10.45,0,0,1,1.14-4,3.95,3.95,0,0,1,7.25,0,11.72,11.72,0,0,1,1.19,4.25c0,.38.18.47.54.47,1.12,0,2.25,0,3.37,0,.51,0,.65-.16.7-.62a10.64,10.64,0,0,1,1.23-4.23,4,4,0,0,1,2.76-2.17A3.79,3.79,0,0,1,46.23,15a10.18,10.18,0,0,1,1.47,4.63c.05.46.18.61.64.59q1.68,0,3.37,0c.44,0,.56-.13.6-.56A10.33,10.33,0,0,1,53.77,15a3.81,3.81,0,0,1,4.16-1.81,3.86,3.86,0,0,1,2.57,1.9,9.82,9.82,0,0,1,1.36,4.32c.06.62.26.83.89.79,1.05-.06,2.11,0,3.16,0,.39,0,.53-.08.58-.5a10.83,10.83,0,0,1,1.4-4.59,3.83,3.83,0,0,1,4.17-1.93,3.91,3.91,0,0,1,2.71,2,10.37,10.37,0,0,1,1.31,4.34c.06.58.29.66.79.65q2.59,0,5.18,0A9,9,0,0,1,87,21.76a7.67,7.67,0,0,1,3.4,6.46c.05,1.3,0,2.6,0,3.91a1.38,1.38,0,1,1-2.75,0c0-1.32,0-2.65-.05-4a5.14,5.14,0,0,0-5-5.08c-1.34-.11-2.69,0-4,0Z"/><path class="cls-2" d="M50,37.19H18.59a2.65,2.65,0,0,1-.93-.08,1.33,1.33,0,0,1-.94-1.39,1.26,1.26,0,0,1,1-1.24,4.1,4.1,0,0,1,.94-.07H81.33a6.45,6.45,0,0,1,.67,0,1.38,1.38,0,0,1,0,2.77c-.22,0-.45,0-.67,0Z"/><path class="cls-1" d="M33.6,58H23.81a3,3,0,0,1-3-3V45.21a3,3,0,0,1,3-3H33.6a3,3,0,0,1,3,3V55A3,3,0,0,1,33.6,58ZM23.81,44.51a.7.7,0,0,0-.7.7V55a.7.7,0,0,0,.7.7H33.6a.7.7,0,0,0,.7-.7V45.21a.7.7,0,0,0-.7-.7Z"/><path class="cls-1" d="M54.89,58H45.1a3,3,0,0,1-3-3V45.21a3,3,0,0,1,3-3h9.79a3,3,0,0,1,3,3V55A3,3,0,0,1,54.89,58ZM45.1,44.51a.7.7,0,0,0-.7.7V55a.7.7,0,0,0,.7.7h9.79a.7.7,0,0,0,.7-.7V45.21a.7.7,0,0,0-.7-.7Z"/><path class="cls-2" d="M76.18,58H66.39a3,3,0,0,1-3-3V45.21a3,3,0,0,1,3-3h9.79a3,3,0,0,1,3,3V55A3,3,0,0,1,76.18,58ZM66.39,44.51a.7.7,0,0,0-.7.7V55a.7.7,0,0,0,.7.7h9.79a.7.7,0,0,0,.7-.7V45.21a.7.7,0,0,0-.7-.7Z"/><path class="cls-1" d="M33.6,78.4H23.81a3,3,0,0,1-3-3V65.62a3,3,0,0,1,3-3H33.6a3,3,0,0,1,3,3v9.79A3,3,0,0,1,33.6,78.4ZM23.81,64.92a.7.7,0,0,0-.7.7v9.79a.7.7,0,0,0,.7.7H33.6a.7.7,0,0,0,.7-.7V65.62a.7.7,0,0,0-.7-.7Z"/><path class="cls-2" d="M54.89,78.4H45.1a3,3,0,0,1-3-3V65.62a3,3,0,0,1,3-3h9.79a3,3,0,0,1,3,3v9.79A3,3,0,0,1,54.89,78.4ZM45.1,64.92a.7.7,0,0,0-.7.7v9.79a.7.7,0,0,0,.7.7h9.79a.7.7,0,0,0,.7-.7V65.62a.7.7,0,0,0-.7-.7Z"/><path class="cls-1" d="M76.18,78.4H66.39a3,3,0,0,1-3-3V65.62a3,3,0,0,1,3-3h9.79a3,3,0,0,1,3,3v9.79A3,3,0,0,1,76.18,78.4ZM66.39,64.92a.7.7,0,0,0-.7.7v9.79a.7.7,0,0,0,.7.7h9.79a.7.7,0,0,0,.7-.7V65.62a.7.7,0,0,0-.7-.7Z"/></svg>