<svg id="Layer_1" data-name="Layer 1" xmlns="http://www.w3.org/2000/svg" viewBox="0 0 100 100"><defs><style>.cls-1{fill:#23a5de;}.cls-2{fill:#124f8d;}</style></defs><title>Artboard 4234</title><path class="cls-1" d="M18.07,67a.28.28,0,0,0-.38-.12l-2,1.06a.28.28,0,0,0-.12.38A38.83,38.83,0,0,0,24.12,79.2a.28.28,0,0,0,.4,0L26,77.45a.28.28,0,0,0,0-.39A36,36,0,0,1,18.07,67Z"/><path class="cls-2" d="M16.17,62.82a36.54,36.54,0,0,1-2.34-12.6.28.28,0,0,0-.28-.28H11.26a.28.28,0,0,0-.28.28,39.4,39.4,0,0,0,2.53,13.62.28.28,0,0,0,.37.16L16,63.18A.28.28,0,0,0,16.17,62.82Z"/><path class="cls-1" d="M11.51,45.63l2.27.26a.28.28,0,0,0,.31-.25A35.84,35.84,0,0,1,17.87,33.4a.28.28,0,0,0-.12-.38l-2-1.07a.28.28,0,0,0-.38.12,38.68,38.68,0,0,0-4.09,13.25A.28.28,0,0,0,11.51,45.63Z"/><path class="cls-2" d="M41.32,85.12a36,36,0,0,1-11.69-5.24.28.28,0,0,0-.39.07l-1.31,1.88a.28.28,0,0,0,.07.39,38.83,38.83,0,0,0,12.65,5.67.28.28,0,0,0,.34-.21l.53-2.23A.28.28,0,0,0,41.32,85.12Z"/><path class="cls-1" d="M45.65,13.83l-.27-2.27a.28.28,0,0,0-.32-.25h0a38.86,38.86,0,0,0-13.2,4.16.28.28,0,0,0-.12.38l1.08,2a.28.28,0,0,0,.38.12A36,36,0,0,1,45.4,14.14.28.28,0,0,0,45.65,13.83Z"/><path class="cls-2" d="M29.26,20.37a.28.28,0,0,0,.07-.39L28,18.1a.28.28,0,0,0-.39-.07,39,39,0,0,0-9.76,9.84.28.28,0,0,0,.07.39l1.89,1.29a.28.28,0,0,0,.39-.07A36.13,36.13,0,0,1,29.26,20.37Z"/><path class="cls-2" d="M52.65,11.08S50.85,11,50,11a.28.28,0,0,0-.28.29l0,2.29a.28.28,0,0,0,.28.28c.82,0,2.45.14,2.45.14A36.15,36.15,0,0,1,85.8,45.42c2.53,19.74-9.86,37.65-31.22,40.39a41,41,0,0,1-8.75.12.28.28,0,0,0-.31.24l-.28,2.27a.28.28,0,0,0,.25.32,44.07,44.07,0,0,0,9.47,0,39.05,39.05,0,0,0-2.31-77.71Z"/></svg>