<svg id="Layer_1" data-name="Layer 1" xmlns="http://www.w3.org/2000/svg" viewBox="0 0 100 100"><defs><style>.cls-1{fill:#23a5de;}.cls-2{fill:#124f8d;}</style></defs><title>Artboard 5234</title><path class="cls-1" d="M80.54,71.3c-.55,0-.53-.28-.52-.65,0,0,0,0,0-.05A20.88,20.88,0,0,1,78.11,79c-2.61,5.45-7.21,8-13,8.69-1.74.21-1.74.19-1.74-1.59,0-.1,0-.2,0-.3,0-3.67-2.15-5.81-5.82-5.81H46.31c-1.67,0-3.35,0-5,.07a7.44,7.44,0,0,0,.35,14.81c5.39.08,10.78,0,16.18,0a1.53,1.53,0,1,0,.1-3.07c-.25,0-.5,0-.75,0H42.73a11.05,11.05,0,0,1-1.42-.06,3.72,3.72,0,0,1-2.91-1.87,4.65,4.65,0,0,1,0-4.78,4,4,0,0,1,3.83-2H57.75a2.28,2.28,0,0,1,2.58,2.58c0,1.15,0,2.3,0,3.44,0,1.32.56,1.88,1.87,1.86a30.76,30.76,0,0,0,4.69-.4c6.7-1.16,11.64-4.62,14.37-11A23.29,23.29,0,0,0,83,71.83c0-.42.15-.61.48-.7h0S81.09,71.29,80.54,71.3Z"/><path class="cls-2" d="M90.85,43a16.23,16.23,0,0,0-6.92-2.23c-.69-.07-.85-.3-.83-.95a33.72,33.72,0,0,0-1.54-11.66A33.11,33.11,0,0,0,17.94,30a37,37,0,0,0-1,10c0,.51-.14.68-.66.72A17,17,0,0,0,11.13,42c-4,1.67-6.24,4.35-6.08,9,.12,3.42.08,6.84,0,10.26A8.23,8.23,0,0,0,9.81,69.2a18.53,18.53,0,0,0,8,2c1.69.08,2.19-.43,2.19-2.13q0-9.25,0-18.5a5.84,5.84,0,0,0,0-.82,1.47,1.47,0,0,0-1.55-1.32,1.5,1.5,0,0,0-1.48,1.4c0,.22,0,.45,0,.67q0,8.31,0,16.63c0,.17,0,.35,0,.52s-.05.4-.38.36A14.87,14.87,0,0,1,11,66.36a5.23,5.23,0,0,1-2.84-4.9c0-3.69,0-7.39,0-11.08a6.35,6.35,0,0,1,.17-1.71A5.82,5.82,0,0,1,12,44.92a17,17,0,0,1,6-1.27c1.58-.08,2-.54,2-2.14,0-1,0-2,0-3.07a29.39,29.39,0,0,1,1.95-10.91A30,30,0,0,1,80,36.89c0,1.55,0,3.09,0,4.64s.43,2,2,2.11l.82,0a15.76,15.76,0,0,1,5.89,1.55,5.4,5.4,0,0,1,3.19,5.23q-.08,5.43,0,10.86a5.36,5.36,0,0,1-3.07,5.15A15.7,15.7,0,0,1,83.92,68c-.66.11-.83,0-.82-.7,0-5.19,0-10.38,0-15.58,0-.6,0-1.2,0-1.8a1.53,1.53,0,0,0-3-.1,6.44,6.44,0,0,0,0,.82Q80,55.79,80,61q0,4.31,0,8.61c0,.34,0,.69,0,1,0,0,0,0,0,.05,0,.37,0,.65.52.65s3-.17,3-.17h0a1.55,1.55,0,0,1,.27-.05,16.55,16.55,0,0,0,7.07-2.25A8,8,0,0,0,95,61.51q-.05-5.62,0-11.23A8,8,0,0,0,90.85,43Z"/></svg>