<svg id="Layer_1" data-name="Layer 1" xmlns="http://www.w3.org/2000/svg" viewBox="0 0 100 100"><defs><style>.cls-1{fill:#124f8d;}.cls-2{fill:#23a5de;}</style></defs><title>Artboard 6234</title><path class="cls-1" d="M92.84,30.73c0,3.92,0,7.84,0,11.75a11.58,11.58,0,0,1-3.16,8.24c-1.14,1.22-2.26,2.47-3.44,3.65Q67.17,73.48,48.07,92.55a7,7,0,0,1-10.5,0Q23.5,78.53,9.45,64.46A7,7,0,0,1,9.45,54l36-36a3.71,3.71,0,0,1,.56-.49,1.54,1.54,0,0,1,2,.23,1.57,1.57,0,0,1,.18,1.93,4.72,4.72,0,0,1-.6.67Q29.67,38.18,11.77,56.07a4,4,0,0,0-1.44,3.87,5.08,5.08,0,0,0,1.49,2.46L27.24,77.8Q33.49,84,39.74,90.29a4,4,0,0,0,4.19,1.31A5.08,5.08,0,0,0,46,90.18L71.16,65l14-14c.92-.92,1.78-1.88,2.61-2.88a8.11,8.11,0,0,0,1.91-5.16c.15-6.74,0-13.48.07-20.22,0-1.17,0-2.35,0-3.52a7,7,0,0,0-7-6.95H59.52a5.52,5.52,0,0,1-.75,0,1.57,1.57,0,0,1,0-3.11,4.69,4.69,0,0,1,.67,0H82.87a10.19,10.19,0,0,1,10,10c0,3.87,0,7.74,0,11.61Z"/><path class="cls-2" d="M19.48,23.76A27.37,27.37,0,0,1,21,14.37C24.31,5.65,32.8,3.86,38.85,5.75a45.7,45.7,0,0,1,11.8,6.05A155.75,155.75,0,0,1,72,29.58a1.6,1.6,0,1,1-2.24,2.21,151.92,151.92,0,0,0-21.23-17.6A37.27,37.27,0,0,0,37.94,8.76c-4.49-1.25-8.58-.52-11.82,3.07A13.75,13.75,0,0,0,23,19a38,38,0,0,0,1,15.05,5.43,5.43,0,0,1,.13.66,1.57,1.57,0,0,1-1.26,1.76,1.54,1.54,0,0,1-1.78-1.13,46.37,46.37,0,0,1-1.15-5.71A46.79,46.79,0,0,1,19.48,23.76Z"/><path class="cls-1" d="M80.77,31.83c0,4.33-4.27,8.66-9.47,8.72a9.65,9.65,0,0,1-9.82-9.35c0-1.11.54-1.83,1.48-1.88a1.55,1.55,0,0,1,1.64,1.72,6.51,6.51,0,1,0,6.9-6.66h-.37a1.56,1.56,0,0,1-1.57-1.57,1.54,1.54,0,0,1,1.64-1.56,9.43,9.43,0,0,1,7.38,3.53C80.05,26.55,80.77,28.62,80.77,31.83Z"/></svg>